<!-- Generator: Adobe Illustrator 22.0.1, SVG Export Plug-In  -->
<svg version="1.1"
	 xmlns="http://www.w3.org/2000/svg" xmlns:xlink="http://www.w3.org/1999/xlink" xmlns:a="http://ns.adobe.com/AdobeSVGViewerExtensions/3.0/"
	 x="0px" y="0px" width="182.75px" height="61.305px" viewBox="0 0 182.75 61.305"
	 style="enable-background:new 0 0 182.75 61.305;" xml:space="preserve">
<style type="text/css">
	.st0{clip-path:url(#SVGID_53_);fill:#FFFFFF;}
	.st1{clip-path:url(#SVGID_53_);fill:url(#SVGID_54_);}
	.st2{clip-path:url(#SVGID_55_);}
	.st3{clip-path:url(#SVGID_56_);fill:url(#SVGID_57_);}
	.st4{clip-path:url(#SVGID_58_);}
	.st5{clip-path:url(#SVGID_59_);fill:url(#SVGID_60_);}
	.st6{clip-path:url(#SVGID_61_);}
	.st7{clip-path:url(#SVGID_62_);fill:url(#SVGID_63_);}
	.st8{clip-path:url(#SVGID_64_);}
	.st9{clip-path:url(#SVGID_65_);fill:url(#SVGID_66_);}
	.st10{clip-path:url(#SVGID_67_);fill:#FFFFFF;}
	.st11{opacity:0.5;}
	.st12{clip-path:url(#SVGID_69_);}
	.st13{clip-path:url(#SVGID_71_);fill:url(#SVGID_72_);}
	.st14{clip-path:url(#SVGID_73_);}
	.st15{clip-path:url(#SVGID_74_);fill:url(#SVGID_75_);}
	.st16{clip-path:url(#SVGID_77_);}
	.st17{clip-path:url(#SVGID_79_);fill:url(#SVGID_80_);}
	.st18{clip-path:url(#SVGID_81_);fill:#19BFDB;}
	.st19{clip-path:url(#SVGID_82_);}
	.st20{clip-path:url(#SVGID_83_);fill:url(#SVGID_84_);}
	.st21{clip-path:url(#SVGID_85_);}
	.st22{clip-path:url(#SVGID_86_);fill:url(#SVGID_87_);}
	.st23{opacity:0.38;}
	.st24{clip-path:url(#SVGID_89_);}
	.st25{clip-path:url(#SVGID_91_);fill:url(#SVGID_92_);}
	.st26{clip-path:url(#SVGID_93_);}
	.st27{clip-path:url(#SVGID_94_);fill:url(#SVGID_95_);}
	.st28{opacity:0.19;}
	.st29{clip-path:url(#SVGID_97_);}
	.st30{clip-path:url(#SVGID_99_);fill:url(#SVGID_100_);}
	.st31{clip-path:url(#SVGID_101_);}
	.st32{clip-path:url(#SVGID_102_);fill:url(#SVGID_103_);}
	.st33{clip-path:url(#SVGID_105_);}
	.st34{clip-path:url(#SVGID_107_);fill:url(#SVGID_108_);}
	.st35{clip-path:url(#SVGID_109_);}
	.st36{clip-path:url(#SVGID_110_);fill:url(#SVGID_111_);}
	.st37{clip-path:url(#SVGID_113_);}
	.st38{clip-path:url(#SVGID_115_);fill:url(#SVGID_116_);}
	.st39{clip-path:url(#SVGID_117_);}
	.st40{clip-path:url(#SVGID_118_);fill:url(#SVGID_119_);}
	.st41{clip-path:url(#SVGID_120_);}
	.st42{clip-path:url(#SVGID_121_);fill:url(#SVGID_122_);}
	.st43{clip-path:url(#SVGID_123_);}
	.st44{clip-path:url(#SVGID_124_);fill:url(#SVGID_125_);}
	.st45{clip-path:url(#SVGID_126_);fill:#FFFFFF;}
	.st46{fill:#6D6E70;}
	.st47{clip-path:url(#SVGID_127_);fill:#FFFFFF;}
	.st48{clip-path:url(#SVGID_128_);}
	.st49{clip-path:url(#SVGID_129_);fill:url(#SVGID_130_);}
	.st50{clip-path:url(#SVGID_132_);}
	.st51{clip-path:url(#SVGID_134_);fill:url(#SVGID_135_);}
	.st52{clip-path:url(#SVGID_136_);}
	.st53{clip-path:url(#SVGID_137_);fill:url(#SVGID_138_);}
	.st54{clip-path:url(#SVGID_140_);}
	.st55{clip-path:url(#SVGID_142_);fill:url(#SVGID_143_);}
	.st56{clip-path:url(#SVGID_144_);fill:#FFFFFF;}
	.st57{clip-path:url(#SVGID_146_);fill:#FFFFFF;}
	.st58{clip-path:url(#SVGID_146_);fill:url(#SVGID_147_);}
	.st59{clip-path:url(#SVGID_149_);}
	.st60{clip-path:url(#SVGID_151_);fill:url(#SVGID_152_);}
	.st61{clip-path:url(#SVGID_154_);}
	.st62{clip-path:url(#SVGID_156_);fill:url(#SVGID_157_);}
	.st63{clip-path:url(#SVGID_159_);}
	.st64{clip-path:url(#SVGID_161_);fill:url(#SVGID_162_);}
	.st65{clip-path:url(#SVGID_164_);}
	.st66{clip-path:url(#SVGID_166_);fill:url(#SVGID_167_);}
	.st67{clip-path:url(#SVGID_169_);fill:#FFFFFF;}
	.st68{clip-path:url(#SVGID_172_);}
	.st69{clip-path:url(#SVGID_175_);fill:url(#SVGID_176_);}
	.st70{clip-path:url(#SVGID_178_);}
	.st71{clip-path:url(#SVGID_180_);fill:url(#SVGID_181_);}
	.st72{clip-path:url(#SVGID_184_);}
	.st73{clip-path:url(#SVGID_187_);fill:url(#SVGID_188_);}
	.st74{clip-path:url(#SVGID_190_);fill:#19BFDB;}
	.st75{clip-path:url(#SVGID_192_);}
	.st76{clip-path:url(#SVGID_194_);fill:url(#SVGID_195_);}
	.st77{clip-path:url(#SVGID_197_);}
	.st78{clip-path:url(#SVGID_199_);fill:url(#SVGID_200_);}
	.st79{clip-path:url(#SVGID_203_);}
	.st80{clip-path:url(#SVGID_206_);fill:url(#SVGID_207_);}
	.st81{clip-path:url(#SVGID_209_);}
	.st82{clip-path:url(#SVGID_211_);fill:url(#SVGID_212_);}
	.st83{clip-path:url(#SVGID_215_);}
	.st84{clip-path:url(#SVGID_218_);fill:url(#SVGID_219_);}
	.st85{clip-path:url(#SVGID_221_);}
	.st86{clip-path:url(#SVGID_223_);fill:url(#SVGID_224_);}
	.st87{clip-path:url(#SVGID_227_);}
	.st88{clip-path:url(#SVGID_230_);fill:url(#SVGID_231_);}
	.st89{clip-path:url(#SVGID_233_);}
	.st90{clip-path:url(#SVGID_235_);fill:url(#SVGID_236_);}
	.st91{clip-path:url(#SVGID_239_);}
	.st92{clip-path:url(#SVGID_242_);fill:url(#SVGID_243_);}
	.st93{clip-path:url(#SVGID_245_);}
	.st94{clip-path:url(#SVGID_247_);fill:url(#SVGID_248_);}
	.st95{clip-path:url(#SVGID_250_);}
	.st96{clip-path:url(#SVGID_252_);fill:url(#SVGID_253_);}
	.st97{clip-path:url(#SVGID_255_);}
	.st98{clip-path:url(#SVGID_257_);fill:url(#SVGID_258_);}
	.st99{clip-path:url(#SVGID_260_);fill:#FFFFFF;}
	.st100{clip-path:url(#SVGID_262_);fill:#FFFFFF;}
	.st101{clip-path:url(#SVGID_264_);}
	.st102{clip-path:url(#SVGID_266_);fill:url(#SVGID_267_);}
	.st103{clip-path:url(#SVGID_270_);}
	.st104{clip-path:url(#SVGID_273_);fill:url(#SVGID_274_);}
	.st105{clip-path:url(#SVGID_276_);}
	.st106{clip-path:url(#SVGID_278_);fill:url(#SVGID_279_);}
	.st107{clip-path:url(#SVGID_282_);}
	.st108{clip-path:url(#SVGID_285_);fill:url(#SVGID_286_);}
	.st109{clip-path:url(#SVGID_288_);fill:#FFFFFF;}
</style>
<defs>
</defs>
<g>
	<defs>
		<rect id="SVGID_52_" x="0" width="182.75" height="53.451"/>
	</defs>
	<clipPath id="SVGID_53_">
		<use xlink:href="#SVGID_52_"  style="overflow:visible;"/>
	</clipPath>
	<path class="st0" d="M26.659,39.802c-0.48,0.366-0.976,0.708-1.488,1.025c-1.025,0.633-2.102,1.159-3.214,1.57
		c-1.126,0.414-2.284,0.711-3.446,0.884c-1.008,0.147-2.01,0.196-3.002,0.153v4.35c0.946-0.01,1.903-0.085,2.862-0.238
		c2.901-0.463,5.737-1.57,8.282-3.241c0.897-0.587,1.749-1.243,2.552-1.958L26.659,39.802z"/>
	<linearGradient id="SVGID_54_" gradientUnits="userSpaceOnUse" x1="15.3153" y1="47.4755" x2="27.6089" y2="39.7936">
		<stop  offset="0.235" style="stop-color:#FFFFFF"/>
		<stop  offset="0.56" style="stop-color:#000000"/>
		<stop  offset="0.925" style="stop-color:#FFFFFF"/>
	</linearGradient>
	<path class="st1" d="M26.659,39.802c-0.48,0.366-0.976,0.708-1.488,1.025c-1.025,0.633-2.102,1.159-3.214,1.57
		c-1.126,0.414-2.284,0.711-3.446,0.884c-1.008,0.147-2.01,0.196-3.002,0.153v4.35c0.946-0.01,1.903-0.085,2.862-0.238
		c2.901-0.463,5.737-1.57,8.282-3.241c0.897-0.587,1.749-1.243,2.552-1.958L26.659,39.802z"/>
</g>
<g>
	<defs>
		<path id="SVGID_50_" d="M18.51,43.279c-0.777,0.114-1.55,0.173-2.317,0.173c-0.232,0-0.46-0.007-0.685-0.016
			c0.225,0.01,0.454,0.016,0.685,0.016C16.96,43.452,17.734,43.393,18.51,43.279 M18.51,43.279c0.245-0.036,0.493-0.078,0.738-0.124
			C19.003,43.201,18.755,43.243,18.51,43.279"/>
	</defs>
	<clipPath id="SVGID_55_">
		<use xlink:href="#SVGID_50_"  style="overflow:visible;"/>
	</clipPath>
	<g class="st2">
		<defs>
			<rect id="SVGID_51_" x="19.055" y="53.024" width="4.595" height="0.362"/>
		</defs>
		<clipPath id="SVGID_56_">
			<use xlink:href="#SVGID_51_"  style="overflow:visible;"/>
		</clipPath>
		
			<linearGradient id="SVGID_57_" gradientUnits="userSpaceOnUse" x1="-55.9952" y1="862.6394" x2="-52.7318" y2="862.6394" gradientTransform="matrix(1.7739 -0.6039 -0.6039 -1.7739 642.4738 1549.3661)">
			<stop  offset="0" style="stop-color:#FFFFFF"/>
			<stop  offset="1" style="stop-color:#929497"/>
		</linearGradient>
		<polygon class="st3" points="18.945,53.061 23.173,51.622 23.761,53.348 19.532,54.788 		"/>
	</g>
</g>
<g>
	<defs>
		<path id="SVGID_48_" d="M19.248,43.155c0.209-0.042,0.421-0.088,0.63-0.137C19.665,43.067,19.457,43.113,19.248,43.155"/>
	</defs>
	<clipPath id="SVGID_58_">
		<use xlink:href="#SVGID_48_"  style="overflow:visible;"/>
	</clipPath>
	<g class="st4">
		<defs>
			<rect id="SVGID_49_" x="23.65" y="52.857" width="0.773" height="0.166"/>
		</defs>
		<clipPath id="SVGID_59_">
			<use xlink:href="#SVGID_49_"  style="overflow:visible;"/>
		</clipPath>
		
			<linearGradient id="SVGID_60_" gradientUnits="userSpaceOnUse" x1="-55.9952" y1="862.3265" x2="-52.7318" y2="862.3265" gradientTransform="matrix(1.7739 -0.6039 -0.6039 -1.7739 642.483 1549.3931)">
			<stop  offset="0" style="stop-color:#E6E7E8"/>
			<stop  offset="1" style="stop-color:#898B8D"/>
		</linearGradient>
		<polygon class="st5" points="23.599,52.874 24.343,52.621 24.474,53.006 23.73,53.26 		"/>
	</g>
</g>
<g>
	<defs>
		<path id="SVGID_46_" d="M19.248,43.155c-0.245,0.046-0.493,0.088-0.738,0.124c-0.777,0.114-1.55,0.173-2.317,0.173
			c-0.232,0-0.46-0.007-0.685-0.016v4.347c0.95-0.01,1.903-0.082,2.865-0.235c0.157-0.026,0.317-0.052,0.473-0.082
			c0.02-0.003,0.036-0.01,0.055-0.013c1.191-0.222,2.369-0.558,3.518-0.992c-0.751-0.819-1.436-1.697-2.053-2.627
			c-0.176-0.268-0.339-0.538-0.49-0.816C19.669,43.067,19.457,43.113,19.248,43.155"/>
	</defs>
	<clipPath id="SVGID_61_">
		<use xlink:href="#SVGID_46_"  style="overflow:visible;"/>
	</clipPath>
	<g class="st6">
		<defs>
			<rect id="SVGID_47_" x="19.055" y="52.86" width="8.491" height="5.855"/>
		</defs>
		<clipPath id="SVGID_62_">
			<use xlink:href="#SVGID_47_"  style="overflow:visible;"/>
		</clipPath>
		
			<linearGradient id="SVGID_63_" gradientUnits="userSpaceOnUse" x1="-55.9955" y1="861.8422" x2="-52.7321" y2="861.8422" gradientTransform="matrix(1.7739 -0.6039 -0.6039 -1.7739 642.9825 1550.8612)">
			<stop  offset="0" style="stop-color:#616264"/>
			<stop  offset="1" style="stop-color:#454547"/>
		</linearGradient>
		<polygon class="st7" points="17.269,53.468 26.665,50.27 29.333,58.107 19.937,61.305 		"/>
	</g>
</g>
<g>
	<defs>
		<path id="SVGID_44_" d="M25.171,40.828c-0.682,0.421-1.387,0.796-2.111,1.119c0.64,0.858,1.358,1.655,2.138,2.386
			c0.193,0.176,0.382,0.349,0.578,0.516c0.241-0.137,0.476-0.284,0.711-0.434c0.055-0.036,0.111-0.072,0.166-0.108
			c0.897-0.591,1.749-1.243,2.552-1.958l-2.545-2.545C26.182,40.169,25.683,40.512,25.171,40.828"/>
	</defs>
	<clipPath id="SVGID_64_">
		<use xlink:href="#SVGID_44_"  style="overflow:visible;"/>
	</clipPath>
	<g class="st8">
		<defs>
			<rect id="SVGID_45_" x="28.333" y="48.908" width="7.551" height="6.204"/>
		</defs>
		<clipPath id="SVGID_65_">
			<use xlink:href="#SVGID_45_"  style="overflow:visible;"/>
		</clipPath>
		
			<linearGradient id="SVGID_66_" gradientUnits="userSpaceOnUse" x1="-612.7491" y1="470.5499" x2="-609.4857" y2="470.5499" gradientTransform="matrix(-1.8098 1.0073 1.0073 1.8098 -1550.2863 -182.6707)">
			<stop  offset="0" style="stop-color:#616264"/>
			<stop  offset="1" style="stop-color:#454547"/>
		</linearGradient>
		<polygon class="st9" points="38.521,53.645 30.119,58.321 25.697,50.376 34.098,45.699 		"/>
	</g>
</g>
<g>
	<defs>
		<rect id="SVGID_43_" x="0" width="182.75" height="53.451"/>
	</defs>
	<clipPath id="SVGID_67_">
		<use xlink:href="#SVGID_43_"  style="overflow:visible;"/>
	</clipPath>
	<path class="st10" d="M23.728,15.563c0.924-0.036,1.805-0.055,2.614-0.059h0.15v-1.769c-0.95,0-2,0.016-3.117,0.065
		c-1.26,0.055-2.598,0.147-3.952,0.297l-0.052,0.007l1.635,1.635C21.933,15.658,22.85,15.599,23.728,15.563"/>
</g>
<g class="st11">
	<defs>
		<path id="SVGID_41_" class="st11" d="M20.801,13.964c-0.457,0.039-0.917,0.085-1.377,0.137l-0.052,0.007l1.635,1.632
			c0.558-0.049,1.11-0.088,1.651-0.121c0.046-0.176,0.088-0.352,0.127-0.532c0.091-0.421,0.166-0.845,0.232-1.269
			C22.299,13.853,21.555,13.902,20.801,13.964"/>
	</defs>
	<linearGradient id="SVGID_68_" gradientUnits="userSpaceOnUse" x1="19.4451" y1="13.8945" x2="22.8482" y2="15.0662">
		<stop  offset="0.75" style="stop-color:#FFFFFF"/>
		<stop  offset="1" style="stop-color:#000000"/>
	</linearGradient>
	<use xlink:href="#SVGID_41_"  style="overflow:visible;fill:url(#SVGID_68_);"/>
	<clipPath id="SVGID_69_">
		<use xlink:href="#SVGID_41_"  style="overflow:visible;"/>
	</clipPath>
	<g class="st12">
		<defs>
			<rect id="SVGID_42_" x="23.803" y="16.479" width="4.481" height="2.359"/>
		</defs>
		<linearGradient id="SVGID_70_" gradientUnits="userSpaceOnUse" x1="23.6777" y1="16.8445" x2="28.4097" y2="18.4738">
			<stop  offset="0.75" style="stop-color:#FFFFFF"/>
			<stop  offset="1" style="stop-color:#000000"/>
		</linearGradient>
		<use xlink:href="#SVGID_42_"  style="overflow:visible;fill:url(#SVGID_70_);"/>
		<clipPath id="SVGID_71_">
			<use xlink:href="#SVGID_42_"  style="overflow:visible;"/>
		</clipPath>
		
			<linearGradient id="SVGID_72_" gradientUnits="userSpaceOnUse" x1="100.0509" y1="1372.7905" x2="103.4974" y2="1371.6038" gradientTransform="matrix(0.8096 0 0 -0.8096 -54.5446 1129.1992)">
			<stop  offset="0.75" style="stop-color:#FFFFFF"/>
			<stop  offset="1" style="stop-color:#000000"/>
		</linearGradient>
		<rect x="23.803" y="16.479" class="st13" width="4.481" height="2.359"/>
	</g>
</g>
<g>
	<defs>
		<path id="SVGID_39_" d="M24.747,15.53c0.555-0.013,1.09-0.023,1.596-0.026C25.837,15.508,25.301,15.517,24.747,15.53
			 M25.044,13.752c0.29-0.007,0.578-0.013,0.855-0.013C25.621,13.739,25.334,13.745,25.044,13.752 M25.905,13.739h0.003H25.905z"/>
	</defs>
	<clipPath id="SVGID_73_">
		<use xlink:href="#SVGID_39_"  style="overflow:visible;"/>
	</clipPath>
	<g class="st14">
		<defs>
			<rect id="SVGID_40_" x="30.409" y="16.882" width="1.958" height="2.203"/>
		</defs>
		<clipPath id="SVGID_74_">
			<use xlink:href="#SVGID_40_"  style="overflow:visible;"/>
		</clipPath>
		
			<linearGradient id="SVGID_75_" gradientUnits="userSpaceOnUse" x1="-671.4473" y1="46.6472" x2="-668.184" y2="46.6472" gradientTransform="matrix(-1.0265 0 0 1.0265 -656.7599 -29.8985)">
			<stop  offset="0" style="stop-color:#FFFFFF"/>
			<stop  offset="1" style="stop-color:#929497"/>
		</linearGradient>
		<rect x="30.409" y="16.882" class="st15" width="1.958" height="2.203"/>
	</g>
</g>
<g class="st11">
	<defs>
		<path id="SVGID_37_" class="st11" d="M25.908,13.739h-0.003h-0.007c-0.277,0-0.565,0.007-0.855,0.013c-0.01,0-0.02,0-0.029,0
			c-0.029,0.268-0.062,0.542-0.104,0.816c-0.007,0.042-0.013,0.085-0.016,0.127c-0.003,0.016-0.007,0.033-0.01,0.049
			c-0.042,0.264-0.088,0.525-0.137,0.786c0.555-0.013,1.09-0.023,1.596-0.026h0.15l-0.503-0.891l0.503-0.878
			C26.3,13.736,26.104,13.736,25.908,13.739"/>
	</defs>
	<linearGradient id="SVGID_76_" gradientUnits="userSpaceOnUse" x1="24.8817" y1="14.503" x2="26.6151" y2="14.8086">
		<stop  offset="0" style="stop-color:#000000"/>
		<stop  offset="0.25" style="stop-color:#FFFFFF"/>
	</linearGradient>
	<use xlink:href="#SVGID_37_"  style="overflow:visible;fill:url(#SVGID_76_);"/>
	<clipPath id="SVGID_77_">
		<use xlink:href="#SVGID_37_"  style="overflow:visible;"/>
	</clipPath>
	<g class="st16">
		<defs>
			<rect id="SVGID_38_" x="30.409" y="16.878" width="2.144" height="2.206"/>
		</defs>
		<linearGradient id="SVGID_78_" gradientUnits="userSpaceOnUse" x1="30.2522" y1="17.7647" x2="32.7089" y2="18.1979">
			<stop  offset="0" style="stop-color:#000000"/>
			<stop  offset="0.25" style="stop-color:#FFFFFF"/>
		</linearGradient>
		<use xlink:href="#SVGID_38_"  style="overflow:visible;fill:url(#SVGID_78_);"/>
		<clipPath id="SVGID_79_">
			<use xlink:href="#SVGID_38_"  style="overflow:visible;"/>
		</clipPath>
		
			<linearGradient id="SVGID_80_" gradientUnits="userSpaceOnUse" x1="-669.4149" y1="46.4552" x2="-673.1541" y2="47.1145" gradientTransform="matrix(-1.0265 0 0 1.0265 -656.7599 -29.8994)">
			<stop  offset="0" style="stop-color:#000000"/>
			<stop  offset="0.25" style="stop-color:#FFFFFF"/>
		</linearGradient>
		<rect x="30.409" y="16.878" class="st17" width="2.144" height="2.206"/>
	</g>
</g>
<g>
	<defs>
		<rect id="SVGID_36_" x="0" width="182.75" height="53.451"/>
	</defs>
	<clipPath id="SVGID_81_">
		<use xlink:href="#SVGID_36_"  style="overflow:visible;"/>
	</clipPath>
	<path class="st18" d="M52.47,33.98c-0.63-2.16-1.67-4.22-3.04-6.09c-1.3-1.76-2.89-3.36-4.75-4.7c-0.5-0.36-1.02-0.68-1.57-0.97
		c-0.54-0.28-1.1-0.53-1.67-0.75c-0.57-0.23-1.16-0.42-1.76-0.6c-0.59-0.17-1.2-0.32-1.81-0.46c-1.34-0.29-2.73-0.5-4.1-0.65
		c-1.35-0.15-2.69-0.25-3.95-0.3c-1.25-0.05-2.43-0.07-3.47-0.07c-1.03,0.01-1.93,0.03-2.62,0.06c0.09-0.29,0.2-0.62,0.3-0.98
		c0.11-0.36,0.22-0.75,0.32-1.17c0.1-0.4,0.21-0.83,0.3-1.28c0.09-0.43,0.17-0.88,0.24-1.32c0.06-0.36,0.1-0.72,0.14-1.08
		c0.03-0.35,0.06-0.7,0.07-1.04c0.01-0.35,0-0.68-0.02-1.01c-0.02-0.32-0.05-0.64-0.1-0.95c-0.06-0.3-0.13-0.59-0.22-0.87
		c-0.09-0.28-0.2-0.55-0.34-0.8c-0.13-0.25-0.29-0.49-0.48-0.7c-0.18-0.22-0.4-0.43-0.65-0.61c-0.9-0.65-1.95-1.13-3.09-1.46
		c-1.12-0.32-2.33-0.49-3.58-0.52c-1.24-0.03-2.53,0.08-3.81,0.33c-1.29,0.25-2.59,0.66-3.84,1.22c-1.28,0.58-2.4,1.27-3.34,2.04
		c-0.96,0.8-1.74,1.69-2.3,2.62c-0.58,0.98-0.92,2-0.97,3.03c-0.04,1.07,0.23,2.13,0.89,3.12c0.18,0.27,0.42,0.53,0.7,0.76
		c0.28,0.23,0.6,0.44,0.97,0.64c0.36,0.19,0.76,0.36,1.18,0.52c0.43,0.15,0.89,0.29,1.37,0.42c1.07,0.28,2.25,0.49,3.47,0.65
		c1.23,0.15,2.49,0.25,3.7,0.31c1.22,0.06,2.39,0.08,3.43,0.08c1.05,0,1.96-0.02,2.67-0.05c-0.11,0.31-0.24,0.68-0.37,1.09
		c-0.15,0.42-0.3,0.88-0.45,1.39c-0.16,0.52-0.32,1.08-0.47,1.69c-0.16,0.61-0.32,1.26-0.47,1.95c-0.12,0.56-0.24,1.15-0.34,1.76
		c-0.11,0.61-0.2,1.24-0.28,1.89c-0.08,0.66-0.15,1.34-0.19,2.02c-0.04,0.69-0.06,1.4-0.05,2.11c0.01,0.72,0.05,1.45,0.13,2.17
		c0.08,0.74,0.2,1.47,0.37,2.2c0.17,0.74,0.39,1.46,0.67,2.16c0.29,0.71,0.65,1.4,1.08,2.05c1.62,2.46,3.74,4.54,6.17,6.14
		c2.55,1.67,5.38,2.77,8.28,3.23c2.96,0.48,5.89,0.27,8.56-0.64c2.63-0.9,4.93-2.45,6.67-4.61c1.67-2.07,2.64-4.46,2.99-6.94
		C53.37,38.67,53.15,36.28,52.47,33.98z M19.93,19.62c-0.61,0.02-1.31,0.03-2.07,0.02c-0.76,0-1.58-0.01-2.43-0.04
		c-0.85-0.04-1.72-0.09-2.58-0.16c-0.88-0.08-1.75-0.18-2.57-0.32c-0.81-0.14-1.58-0.31-2.27-0.51c-0.67-0.21-1.27-0.44-1.76-0.71
		c-0.48-0.26-0.85-0.55-1.09-0.88c-0.28-0.4-0.49-0.82-0.63-1.25c-0.14-0.43-0.2-0.86-0.2-1.29s0.06-0.86,0.19-1.29
		c0.12-0.42,0.29-0.83,0.52-1.24c0.23-0.4,0.5-0.79,0.81-1.17c0.32-0.36,0.68-0.72,1.07-1.06c0.39-0.33,0.83-0.65,1.3-0.95
		c0.47-0.29,0.97-0.56,1.51-0.81c0.53-0.24,1.07-0.46,1.62-0.63C11.9,7.16,12.45,7.01,13,6.9c0.55-0.11,1.1-0.19,1.64-0.23
		c0.55-0.05,1.09-0.07,1.63-0.05c0.53,0.01,1.06,0.06,1.57,0.14c0.51,0.08,1,0.18,1.48,0.33c0.48,0.14,0.94,0.32,1.37,0.53
		c0.44,0.21,0.85,0.46,1.23,0.74c0.17,0.13,0.31,0.28,0.45,0.44c0.13,0.17,0.25,0.36,0.35,0.56c0.1,0.21,0.18,0.43,0.25,0.67
		c0.07,0.24,0.12,0.5,0.16,0.77c0.05,0.41,0.07,0.85,0.05,1.32c-0.01,0.47-0.05,0.95-0.12,1.45s-0.17,1.01-0.28,1.52
		c-0.11,0.51-0.24,1.02-0.37,1.5c-0.07,0.25-0.14,0.48-0.21,0.71c-0.07,0.24-0.14,0.46-0.21,0.67c-0.07,0.22-0.14,0.42-0.2,0.61
		c-0.07,0.2-0.13,0.38-0.19,0.54l-0.05,0.12l-0.04,0.11l-0.04,0.11l-0.04,0.11C21.05,19.59,20.53,19.61,19.93,19.62z M49.57,39.39
		c-0.18,0.97-0.49,1.92-0.92,2.83c-0.44,0.94-1.01,1.82-1.72,2.63c-0.72,0.84-1.54,1.55-2.45,2.15c-0.92,0.6-1.92,1.07-2.98,1.42
		c-1.06,0.35-2.18,0.57-3.33,0.65c-1.15,0.09-2.31,0.04-3.49-0.13c-1.16-0.17-2.32-0.47-3.44-0.88c-1.12-0.42-2.19-0.94-3.22-1.57
		c-1-0.62-1.95-1.34-2.82-2.16c-0.86-0.79-1.64-1.68-2.32-2.63c-0.3-0.41-0.58-0.91-0.81-1.42c-0.22-0.51-0.42-1.05-0.57-1.63
		c-0.16-0.57-0.28-1.17-0.38-1.78c-0.09-0.62-0.15-1.24-0.18-1.88c-0.06-0.95-0.05-1.91,0-2.86c0.05-0.93,0.14-1.84,0.26-2.72
		c0.11-0.87,0.26-1.7,0.41-2.49c0.15-0.76,0.31-1.48,0.47-2.14c0.08-0.32,0.16-0.63,0.24-0.92c0.08-0.29,0.15-0.57,0.23-0.83
		c0.07-0.25,0.15-0.49,0.21-0.71c0.07-0.22,0.13-0.41,0.19-0.6l0.04-0.13l0.04-0.13l0.05-0.12l0.03-0.11
		c0.4-0.01,0.93-0.03,1.57-0.05c0.63-0.01,1.37-0.02,2.17-0.02c0.81,0.01,1.69,0.03,2.62,0.06c0.92,0.04,1.89,0.1,2.88,0.19
		c1.01,0.08,2.03,0.21,3.04,0.37c1.01,0.17,2.01,0.37,2.94,0.62c0.96,0.25,1.85,0.55,2.66,0.89c0.82,0.36,1.54,0.75,2.14,1.21
		c0.77,0.58,1.48,1.21,2.12,1.88c0.65,0.69,1.25,1.42,1.77,2.18c0.54,0.78,1.01,1.6,1.4,2.44c0.4,0.87,0.71,1.76,0.94,2.67
		c0.24,0.93,0.38,1.88,0.42,2.83C49.82,37.47,49.75,38.44,49.57,39.39z"/>
</g>
<g>
	<defs>
		<path id="SVGID_34_" d="M31.603,21.349c-0.6-0.046-1.191-0.082-1.769-0.108C30.412,21.268,31.002,21.303,31.603,21.349
			 M29.818,19.46c0.095,0.003,0.189,0.01,0.284,0.013C30.007,19.469,29.912,19.463,29.818,19.46
			c-0.065-0.003-0.131-0.003-0.196-0.007C29.687,19.456,29.753,19.456,29.818,19.46"/>
	</defs>
	<clipPath id="SVGID_82_">
		<use xlink:href="#SVGID_34_"  style="overflow:visible;"/>
	</clipPath>
	<g class="st19">
		<defs>
			<rect id="SVGID_35_" x="36.4" y="23.901" width="2.431" height="2.333"/>
		</defs>
		<clipPath id="SVGID_83_">
			<use xlink:href="#SVGID_35_"  style="overflow:visible;"/>
		</clipPath>
		
			<linearGradient id="SVGID_84_" gradientUnits="userSpaceOnUse" x1="-29.484" y1="1134.9548" x2="-26.2206" y2="1134.9548" gradientTransform="matrix(1.1814 0 0 -1.1814 70.6395 1365.8561)">
			<stop  offset="0" style="stop-color:#FFFFFF"/>
			<stop  offset="1" style="stop-color:#929497"/>
		</linearGradient>
		<rect x="36.4" y="23.901" class="st20" width="2.431" height="2.333"/>
	</g>
</g>
<g>
	<defs>
		<path id="SVGID_32_" d="M29.834,21.241c-0.124-0.007-0.245-0.013-0.369-0.02C29.589,21.228,29.71,21.235,29.834,21.241
			 M29.465,21.222l-0.144-0.003C29.368,21.219,29.416,21.222,29.465,21.222 M29.322,21.219c-0.059-0.003-0.114-0.007-0.173-0.007
			L29.322,21.219z M30.223,19.479c-0.042-0.003-0.078-0.003-0.121-0.007C30.144,19.476,30.18,19.476,30.223,19.479"/>
	</defs>
	<clipPath id="SVGID_85_">
		<use xlink:href="#SVGID_32_"  style="overflow:visible;"/>
	</clipPath>
	<g class="st21">
		<defs>
			<rect id="SVGID_33_" x="35.819" y="23.927" width="1.315" height="2.17"/>
		</defs>
		<clipPath id="SVGID_86_">
			<use xlink:href="#SVGID_33_"  style="overflow:visible;"/>
		</clipPath>
		
			<linearGradient id="SVGID_87_" gradientUnits="userSpaceOnUse" x1="-29.484" y1="1134.9669" x2="-26.2206" y2="1134.9669" gradientTransform="matrix(1.1814 0 0 -1.1814 70.6395 1365.8149)">
			<stop  offset="0" style="stop-color:#E6E7E8"/>
			<stop  offset="1" style="stop-color:#898B8D"/>
		</linearGradient>
		<rect x="35.819" y="23.927" class="st22" width="1.315" height="2.17"/>
	</g>
</g>
<g class="st23">
	<defs>
		<path id="SVGID_30_" class="st23" d="M29.142,21.212h0.007c0.108,0.003,0.212,0.007,0.317,0.01
			c0.124,0.007,0.245,0.013,0.369,0.02c0.578,0.026,1.168,0.062,1.769,0.108c-0.007-0.029-0.013-0.055-0.016-0.082
			c-0.117-0.61-0.245-1.188-0.375-1.73c-0.333-0.026-0.662-0.042-0.989-0.059c-0.042-0.003-0.078-0.003-0.121-0.007
			c-0.095-0.003-0.189-0.01-0.284-0.013c-0.065-0.003-0.131-0.003-0.196-0.007c-0.16-0.007-0.32-0.013-0.48-0.02V21.212z"/>
	</defs>
	<linearGradient id="SVGID_88_" gradientUnits="userSpaceOnUse" x1="29.1423" y1="20.3913" x2="31.6029" y2="20.3913">
		<stop  offset="0" style="stop-color:#FFFFFF"/>
		<stop  offset="1" style="stop-color:#000000"/>
	</linearGradient>
	<use xlink:href="#SVGID_30_"  style="overflow:visible;fill:url(#SVGID_88_);"/>
	<clipPath id="SVGID_89_">
		<use xlink:href="#SVGID_30_"  style="overflow:visible;"/>
	</clipPath>
	<g class="st24">
		<defs>
			<rect id="SVGID_31_" x="35.809" y="23.882" width="3.022" height="2.35"/>
		</defs>
		<linearGradient id="SVGID_90_" gradientUnits="userSpaceOnUse" x1="35.8094" y1="25.0563" x2="38.8313" y2="25.0563">
			<stop  offset="0" style="stop-color:#FFFFFF"/>
			<stop  offset="1" style="stop-color:#000000"/>
		</linearGradient>
		<use xlink:href="#SVGID_31_"  style="overflow:visible;fill:url(#SVGID_90_);"/>
		<clipPath id="SVGID_91_">
			<use xlink:href="#SVGID_31_"  style="overflow:visible;"/>
		</clipPath>
		
			<linearGradient id="SVGID_92_" gradientUnits="userSpaceOnUse" x1="-29.4831" y1="1134.9644" x2="-26.2197" y2="1134.9644" gradientTransform="matrix(1.1814 0 0 -1.1814 70.6395 1365.856)">
			<stop  offset="0" style="stop-color:#FFFFFF"/>
			<stop  offset="1" style="stop-color:#000000"/>
		</linearGradient>
		<rect x="35.809" y="23.882" class="st25" width="3.022" height="2.35"/>
	</g>
</g>
<g>
	<defs>
		<path id="SVGID_28_" d="M38.169,22.361v-0.003c-0.888-0.228-1.824-0.421-2.78-0.574C36.345,21.937,37.278,22.129,38.169,22.361"/>
	</defs>
	<clipPath id="SVGID_93_">
		<use xlink:href="#SVGID_28_"  style="overflow:visible;"/>
	</clipPath>
	<g class="st26">
		<defs>
			<rect id="SVGID_29_" x="43.485" y="26.766" width="3.417" height="0.711"/>
		</defs>
		<clipPath id="SVGID_94_">
			<use xlink:href="#SVGID_29_"  style="overflow:visible;"/>
		</clipPath>
		
			<linearGradient id="SVGID_95_" gradientUnits="userSpaceOnUse" x1="-481.6504" y1="292.0391" x2="-478.387" y2="292.0391" gradientTransform="matrix(-1.8546 -0.2277 -0.2277 1.8546 -781.673 -624.1794)">
			<stop  offset="0" style="stop-color:#FFFFFF"/>
			<stop  offset="1" style="stop-color:#929497"/>
		</linearGradient>
		<polygon class="st27" points="46.851,27.891 43.399,27.467 43.536,26.353 46.988,26.777 		"/>
	</g>
</g>
<g class="st28">
	<defs>
		<path id="SVGID_26_" class="st28" d="M33.744,19.858c0.144,0.552,0.29,1.136,0.428,1.746c0.408,0.055,0.813,0.111,1.217,0.179
			c0.956,0.153,1.893,0.346,2.78,0.574v-1.873l-0.297-0.069c-1.345-0.294-2.731-0.506-4.102-0.659
			c-0.016-0.003-0.036-0.003-0.052-0.007C33.727,19.786,33.734,19.822,33.744,19.858"/>
	</defs>
	<linearGradient id="SVGID_96_" gradientUnits="userSpaceOnUse" x1="33.7176" y1="21.0538" x2="38.1689" y2="21.0538">
		<stop  offset="0" style="stop-color:#000000"/>
		<stop  offset="1" style="stop-color:#FFFFFF"/>
	</linearGradient>
	<use xlink:href="#SVGID_26_"  style="overflow:visible;fill:url(#SVGID_96_);"/>
	<clipPath id="SVGID_97_">
		<use xlink:href="#SVGID_26_"  style="overflow:visible;"/>
	</clipPath>
	<g class="st29">
		<defs>
			<rect id="SVGID_27_" x="41.429" y="24.27" width="5.469" height="3.201"/>
		</defs>
		<linearGradient id="SVGID_98_" gradientUnits="userSpaceOnUse" x1="41.429" y1="25.8705" x2="46.8984" y2="25.8705">
			<stop  offset="0" style="stop-color:#000000"/>
			<stop  offset="1" style="stop-color:#FFFFFF"/>
		</linearGradient>
		<use xlink:href="#SVGID_27_"  style="overflow:visible;fill:url(#SVGID_98_);"/>
		<clipPath id="SVGID_99_">
			<use xlink:href="#SVGID_27_"  style="overflow:visible;"/>
		</clipPath>
		
			<linearGradient id="SVGID_100_" gradientUnits="userSpaceOnUse" x1="-481.6505" y1="291.8101" x2="-478.3871" y2="291.8101" gradientTransform="matrix(-1.8546 -0.2277 -0.2277 1.8546 -781.5891 -624.8629)">
			<stop  offset="0" style="stop-color:#000000"/>
			<stop  offset="1" style="stop-color:#FFFFFF"/>
		</linearGradient>
		<polygon class="st30" points="46.817,28.133 41.042,27.424 41.51,23.608 47.286,24.317 		"/>
	</g>
</g>
<g>
	<defs>
		<path id="SVGID_24_" d="M8.651,18.781c0,0,0,0,0-0.003c-0.199-0.052-0.398-0.101-0.587-0.157
			C8.253,18.676,8.449,18.729,8.651,18.781 M5.714,17.564c0.16,0.121,0.339,0.235,0.538,0.339c0.486,0.268,1.083,0.499,1.762,0.702
			c-0.679-0.202-1.276-0.434-1.762-0.702c-0.199-0.108-0.372-0.222-0.532-0.339C5.718,17.564,5.714,17.564,5.714,17.564"/>
	</defs>
	<clipPath id="SVGID_101_">
		<use xlink:href="#SVGID_24_"  style="overflow:visible;"/>
	</clipPath>
	<g class="st31">
		<defs>
			<rect id="SVGID_25_" x="7.023" y="21.581" width="3.609" height="1.495"/>
		</defs>
		<clipPath id="SVGID_102_">
			<use xlink:href="#SVGID_25_"  style="overflow:visible;"/>
		</clipPath>
		
			<linearGradient id="SVGID_103_" gradientUnits="userSpaceOnUse" x1="-519.1494" y1="1602.4438" x2="-515.886" y2="1602.4438" gradientTransform="matrix(0.5277 0.4475 0.4475 -0.5277 -435.4845 1099.3856)">
			<stop  offset="0" style="stop-color:#FFFFFF"/>
			<stop  offset="1" style="stop-color:#929497"/>
		</linearGradient>
		<polygon class="st32" points="8.533,19.8 11.37,22.206 9.122,24.856 6.286,22.45 		"/>
	</g>
</g>
<g class="st11">
	<defs>
		<path id="SVGID_22_" class="st11" d="M3.975,18.797c0.274,0.225,0.591,0.431,0.943,0.62c0.359,0.189,0.76,0.362,1.185,0.519
			c0.131,0.049,0.264,0.091,0.401,0.134c0.708-0.454,1.491-0.832,2.147-1.289c-0.202-0.052-0.398-0.104-0.587-0.16
			c-0.016-0.007-0.033-0.013-0.049-0.016c-0.679-0.202-1.276-0.434-1.762-0.702c-0.199-0.104-0.379-0.219-0.538-0.339
			C5.045,17.864,4.497,18.295,3.975,18.797"/>
	</defs>
	<linearGradient id="SVGID_104_" gradientUnits="userSpaceOnUse" x1="5.4614" y1="17.6165" x2="7.1172" y2="19.8955">
		<stop  offset="0.165" style="stop-color:#FFFFFF"/>
		<stop  offset="1" style="stop-color:#000000"/>
	</linearGradient>
	<use xlink:href="#SVGID_22_"  style="overflow:visible;fill:url(#SVGID_104_);"/>
	<clipPath id="SVGID_105_">
		<use xlink:href="#SVGID_22_"  style="overflow:visible;"/>
	</clipPath>
	<g class="st33">
		<defs>
			<rect id="SVGID_23_" x="4.882" y="21.581" width="5.75" height="3.081"/>
		</defs>
		<linearGradient id="SVGID_106_" gradientUnits="userSpaceOnUse" x1="6.0315" y1="20.7458" x2="9.4831" y2="25.4965">
			<stop  offset="0.165" style="stop-color:#FFFFFF"/>
			<stop  offset="1" style="stop-color:#000000"/>
		</linearGradient>
		<use xlink:href="#SVGID_23_"  style="overflow:visible;fill:url(#SVGID_106_);"/>
		<clipPath id="SVGID_107_">
			<use xlink:href="#SVGID_23_"  style="overflow:visible;"/>
		</clipPath>
		
			<linearGradient id="SVGID_108_" gradientUnits="userSpaceOnUse" x1="-519.4222" y1="1602.1683" x2="-515.6274" y2="1601.2433" gradientTransform="matrix(0.5277 0.4475 0.4475 -0.5277 -435.9883 1099.9794)">
			<stop  offset="0.165" style="stop-color:#FFFFFF"/>
			<stop  offset="1" style="stop-color:#000000"/>
		</linearGradient>
		<polygon class="st34" points="7.288,18.744 12.152,22.87 8.227,27.498 3.363,23.373 		"/>
	</g>
</g>
<g>
	<defs>
		<path id="SVGID_20_" d="M11.788,19.329v-0.003c-0.496-0.059-0.989-0.124-1.465-0.199C10.799,19.205,11.288,19.274,11.788,19.329
			 M8.651,18.781c0.512,0.127,1.057,0.238,1.628,0.336c-0.571-0.098-1.113-0.212-1.628-0.339
			C8.651,18.781,8.651,18.781,8.651,18.781"/>
	</defs>
	<clipPath id="SVGID_109_">
		<use xlink:href="#SVGID_20_"  style="overflow:visible;"/>
	</clipPath>
	<g class="st35">
		<defs>
			<rect id="SVGID_21_" x="10.632" y="23.072" width="3.851" height="0.679"/>
		</defs>
		<clipPath id="SVGID_110_">
			<use xlink:href="#SVGID_21_"  style="overflow:visible;"/>
		</clipPath>
		
			<linearGradient id="SVGID_111_" gradientUnits="userSpaceOnUse" x1="-413.7521" y1="-208.2175" x2="-410.4887" y2="-208.2175" gradientTransform="matrix(-0.7433 -0.3278 -0.3278 0.7433 -362.6162 42.8213)">
			<stop  offset="0" style="stop-color:#FFFFFF"/>
			<stop  offset="1" style="stop-color:#929497"/>
		</linearGradient>
		<polygon class="st36" points="13.856,25.173 10.382,23.64 11.259,21.65 14.734,23.183 		"/>
	</g>
</g>
<g class="st11">
	<defs>
		<path id="SVGID_18_" class="st11" d="M6.504,20.07c0.31,0.104,0.627,0.202,0.959,0.29c1.077,0.281,2.262,0.49,3.479,0.646
			l0.088,0.007c0.261-0.525,0.457-1.097,0.757-1.684c-0.499-0.055-0.989-0.124-1.465-0.202c-0.013-0.003-0.029-0.007-0.042-0.01
			c-0.571-0.098-1.116-0.209-1.628-0.336C7.996,19.238,7.212,19.616,6.504,20.07"/>
	</defs>
	<linearGradient id="SVGID_112_" gradientUnits="userSpaceOnUse" x1="6.7696" y1="19.0794" x2="11.5139" y2="20.3507">
		<stop  offset="0" style="stop-color:#000000"/>
		<stop  offset="0.835" style="stop-color:#FFFFFF"/>
	</linearGradient>
	<use xlink:href="#SVGID_18_"  style="overflow:visible;fill:url(#SVGID_112_);"/>
	<clipPath id="SVGID_113_">
		<use xlink:href="#SVGID_18_"  style="overflow:visible;"/>
	</clipPath>
	<g class="st37">
		<defs>
			<rect id="SVGID_19_" x="7.989" y="23.075" width="6.491" height="2.748"/>
		</defs>
		<linearGradient id="SVGID_114_" gradientUnits="userSpaceOnUse" x1="7.863" y1="23.5459" x2="14.606" y2="25.3527">
			<stop  offset="0" style="stop-color:#000000"/>
			<stop  offset="0.835" style="stop-color:#FFFFFF"/>
		</linearGradient>
		<use xlink:href="#SVGID_19_"  style="overflow:visible;fill:url(#SVGID_114_);"/>
		<clipPath id="SVGID_115_">
			<use xlink:href="#SVGID_19_"  style="overflow:visible;"/>
		</clipPath>
		
			<linearGradient id="SVGID_116_" gradientUnits="userSpaceOnUse" x1="-409.9154" y1="-206.0843" x2="-413.4618" y2="-206.6333" gradientTransform="matrix(-0.7433 -0.3278 -0.3278 0.7433 -362.6169 42.8229)">
			<stop  offset="0" style="stop-color:#000000"/>
			<stop  offset="0.835" style="stop-color:#FFFFFF"/>
		</linearGradient>
		<polygon class="st38" points="13.423,28.22 6.974,25.376 9.046,20.679 15.494,23.523 		"/>
	</g>
</g>
<g>
	<defs>
		<path id="SVGID_16_" d="M20.742,21.352c-0.111,0.3-0.232,0.649-0.366,1.044c-0.003,0.013-0.007,0.026-0.01,0.039
			c-0.082,0.238-0.166,0.493-0.248,0.76c0.659,0.369,1.41,0.594,2.2,0.666v-0.003c0.082-0.294,0.157-0.565,0.232-0.822
			c0.072-0.258,0.144-0.499,0.212-0.715c0.069-0.219,0.131-0.418,0.189-0.6l0.042-0.131l0.042-0.127l0.039-0.121l0.039-0.108
			L20.742,21.352z"/>
	</defs>
	<clipPath id="SVGID_117_">
		<use xlink:href="#SVGID_16_"  style="overflow:visible;"/>
	</clipPath>
	<g class="st39">
		<defs>
			<rect id="SVGID_17_" x="24.72" y="26.091" width="3.681" height="3.231"/>
		</defs>
		<clipPath id="SVGID_118_">
			<use xlink:href="#SVGID_17_"  style="overflow:visible;"/>
		</clipPath>
		
			<linearGradient id="SVGID_119_" gradientUnits="userSpaceOnUse" x1="606.5273" y1="252.6416" x2="609.7907" y2="252.6416" gradientTransform="matrix(0.0983 -0.674 -0.674 -0.0983 137.2136 461.3416)">
			<stop  offset="0" style="stop-color:#26C0DC"/>
			<stop  offset="1" style="stop-color:#087384"/>
		</linearGradient>
		<polygon class="st40" points="24.259,29.254 24.797,25.565 28.863,26.158 28.325,29.847 		"/>
	</g>
</g>
<g>
	<defs>
		<path id="SVGID_14_" d="M22.201,17.306c-0.072,0.232-0.14,0.454-0.212,0.669c-0.065,0.215-0.137,0.421-0.202,0.607
			c-0.065,0.196-0.127,0.375-0.186,0.535l-0.049,0.124l-0.039,0.114l-0.042,0.108l0.042-0.108l0.039-0.114l0.049-0.124
			c0.059-0.16,0.121-0.339,0.186-0.535c0.065-0.186,0.137-0.392,0.202-0.607C22.061,17.759,22.129,17.537,22.201,17.306
			c0.007-0.023,0.013-0.042,0.02-0.065C22.214,17.263,22.208,17.283,22.201,17.306 M22.221,17.241
			c0.039-0.127,0.078-0.261,0.114-0.395C22.296,16.976,22.257,17.113,22.221,17.241"/>
	</defs>
	<clipPath id="SVGID_120_">
		<use xlink:href="#SVGID_14_"  style="overflow:visible;"/>
	</clipPath>
	<g class="st41">
		<defs>
			<rect id="SVGID_15_" x="26.382" y="20.7" width="1.067" height="3.218"/>
		</defs>
		<clipPath id="SVGID_121_">
			<use xlink:href="#SVGID_15_"  style="overflow:visible;"/>
		</clipPath>
		
			<linearGradient id="SVGID_122_" gradientUnits="userSpaceOnUse" x1="-1521.0515" y1="1034.8497" x2="-1517.7881" y2="1034.8497" gradientTransform="matrix(-0.1094 0.5378 0.5378 0.1094 -696.1456 727.2886)">
			<stop  offset="0" style="stop-color:#FFFFFF"/>
			<stop  offset="1" style="stop-color:#929497"/>
		</linearGradient>
		<polygon class="st42" points="28.077,20.828 27.406,24.126 25.753,23.79 26.424,20.491 		"/>
	</g>
</g>
<g>
	<defs>
		<path id="SVGID_12_" d="M22.201,17.306c-0.072,0.232-0.14,0.454-0.212,0.669c-0.065,0.215-0.137,0.421-0.202,0.607
			c-0.065,0.196-0.127,0.375-0.186,0.535l-0.049,0.124l-0.039,0.114l-0.042,0.108l-0.029,0.075l2.291-0.088
			c0.095-0.29,0.196-0.617,0.303-0.982c0.062-0.212,0.121-0.434,0.183-0.666c-0.627-0.405-1.253-0.76-1.883-0.956
			C22.292,17.002,22.247,17.156,22.201,17.306"/>
	</defs>
	<clipPath id="SVGID_123_">
		<use xlink:href="#SVGID_12_"  style="overflow:visible;"/>
	</clipPath>
	<g class="st43">
		<defs>
			<rect id="SVGID_13_" x="26.346" y="20.7" width="3.414" height="3.306"/>
		</defs>
		<clipPath id="SVGID_124_">
			<use xlink:href="#SVGID_13_"  style="overflow:visible;"/>
		</clipPath>
		
			<linearGradient id="SVGID_125_" gradientUnits="userSpaceOnUse" x1="-1521.0514" y1="1036.9047" x2="-1517.7881" y2="1036.9047" gradientTransform="matrix(-0.1094 0.5378 0.5378 0.1094 -696.1501 727.2877)">
			<stop  offset="0" style="stop-color:#26C0DC"/>
			<stop  offset="1" style="stop-color:#087384"/>
		</linearGradient>
		<polygon class="st44" points="30.405,20.831 29.623,24.672 25.7,23.874 26.481,20.033 		"/>
	</g>
</g>
<g>
	<defs>
		<rect id="SVGID_11_" x="0" width="182.75" height="53.451"/>
	</defs>
	<clipPath id="SVGID_126_">
		<use xlink:href="#SVGID_11_"  style="overflow:visible;"/>
	</clipPath>
	<path class="st45" d="M15.021,43.414c-1.149-0.088-2.265-0.303-3.329-0.653c-1.061-0.346-2.056-0.822-2.979-1.423
		c-0.907-0.594-1.733-1.312-2.451-2.141c-0.708-0.816-1.283-1.7-1.723-2.634c-0.431-0.907-0.734-1.86-0.917-2.833
		c-0.179-0.953-0.245-1.922-0.206-2.891c0.039-0.95,0.183-1.896,0.414-2.829c0.232-0.907,0.548-1.801,0.946-2.666
		c0.388-0.845,0.855-1.664,1.39-2.444c0.525-0.764,1.119-1.491,1.779-2.18c0.643-0.669,1.348-1.299,2.115-1.88
		c0.597-0.457,1.325-0.855,2.144-1.204c0.806-0.346,1.703-0.643,2.656-0.894c0.937-0.248,1.932-0.454,2.944-0.617
		c1.005-0.163,2.03-0.287,3.041-0.375l0.16-0.01l-1.635-1.635c-1.354,0.15-2.722,0.362-4.05,0.649
		c-0.61,0.137-1.214,0.287-1.808,0.46c-0.597,0.173-1.185,0.369-1.756,0.591c-0.578,0.222-1.139,0.473-1.677,0.757
		c-0.545,0.287-1.07,0.607-1.566,0.963c-1.857,1.351-3.456,2.944-4.748,4.706c-1.374,1.867-2.412,3.932-3.048,6.089
		c-0.679,2.297-0.897,4.696-0.565,7.033c0.352,2.48,1.318,4.869,2.986,6.938c1.746,2.164,4.04,3.717,6.674,4.611
		c1.805,0.617,3.727,0.901,5.695,0.881c0,0,0.871-1.221,0.871-2.369c0-1.018-0.871-1.978-0.871-1.978
		C15.344,43.427,15.181,43.423,15.021,43.414"/>
</g>
<polygon class="st46" points="48.03,11.363 48.983,11.856 49.949,12.355 49.384,11.18 "/>
<g>
	<defs>
		<rect id="SVGID_10_" x="0" width="182.75" height="53.451"/>
	</defs>
	<clipPath id="SVGID_127_">
		<use xlink:href="#SVGID_10_"  style="overflow:visible;"/>
	</clipPath>
	<path class="st47" d="M46.941,12.25c-0.486,0.264-1.083,0.499-1.762,0.698c-0.685,0.202-1.449,0.375-2.262,0.512
		c-0.822,0.14-1.69,0.245-2.572,0.317c-0.862,0.078-1.733,0.131-2.578,0.163c-0.848,0.033-1.671,0.049-2.428,0.049
		c-0.764,0-1.465-0.007-2.072-0.023c-0.607-0.016-1.119-0.036-1.504-0.055l-0.039-0.101l-0.039-0.111l-0.042-0.114l-0.046-0.124
		c-0.059-0.163-0.124-0.339-0.189-0.532c-0.065-0.193-0.134-0.395-0.202-0.61c-0.072-0.215-0.14-0.437-0.212-0.669
		c-0.069-0.232-0.14-0.47-0.209-0.715c-0.134-0.483-0.261-0.989-0.375-1.501c-0.111-0.506-0.202-1.018-0.271-1.524
		c-0.072-0.493-0.114-0.982-0.127-1.449c-0.013-0.46,0.003-0.904,0.059-1.318c0.036-0.271,0.085-0.525,0.157-0.767
		c0.065-0.241,0.15-0.463,0.251-0.669c0.101-0.202,0.219-0.392,0.349-0.558c0.134-0.166,0.284-0.313,0.45-0.441
		c0.372-0.284,0.786-0.532,1.224-0.744c0.431-0.212,0.891-0.392,1.374-0.532c0.473-0.144,0.972-0.251,1.485-0.33
		c0.509-0.078,1.034-0.124,1.57-0.137c0.532-0.016,1.074,0,1.619,0.049c0.548,0.046,1.096,0.124,1.648,0.235
		c0.548,0.111,1.1,0.251,1.645,0.428c0.548,0.173,1.093,0.385,1.625,0.63c0.542,0.248,1.044,0.522,1.508,0.813
		c0.473,0.297,0.904,0.614,1.299,0.946c0.398,0.336,0.757,0.695,1.07,1.064c0.317,0.375,0.587,0.767,0.813,1.165
		c0.225,0.408,0.401,0.822,0.522,1.24c0.121,0.424,0.186,0.855,0.189,1.283c0,0.437-0.065,0.868-0.199,1.292
		c-0.137,0.431-0.349,0.855-0.636,1.256C47.796,11.692,47.424,11.986,46.941,12.25 M50.831,9.242
		c-0.046-1.025-0.385-2.049-0.963-3.022c-0.558-0.937-1.338-1.824-2.31-2.624c-0.937-0.773-2.059-1.465-3.332-2.04
		c-1.253-0.561-2.549-0.966-3.838-1.221c-1.283-0.251-2.572-0.362-3.812-0.33c-1.25,0.029-2.464,0.202-3.58,0.522
		c-1.142,0.326-2.196,0.809-3.09,1.459c-0.248,0.183-0.467,0.385-0.653,0.604c-0.189,0.219-0.346,0.454-0.483,0.705
		s-0.248,0.519-0.336,0.796c-0.095,0.281-0.163,0.574-0.219,0.875c-0.052,0.307-0.085,0.623-0.104,0.946
		c-0.02,0.33-0.023,0.666-0.013,1.005c0.01,0.346,0.033,0.698,0.069,1.051c0.036,0.356,0.082,0.715,0.137,1.074
		c0.069,0.447,0.15,0.891,0.241,1.325c0.091,0.444,0.196,0.875,0.297,1.279c0.104,0.414,0.215,0.806,0.32,1.165
		c0.104,0.365,0.209,0.695,0.3,0.982c-0.692-0.026-1.586-0.052-2.621-0.055c-0.111,0-0.235,0-0.349,0l-0.503,0.878l0.503,0.891
		c0.747-0.003,1.433,0.007,2.027,0.02c0.633,0.013,1.165,0.033,1.563,0.052l0.036,0.108l0.039,0.121l0.042,0.124l0.046,0.134
		c0.059,0.183,0.121,0.382,0.186,0.6c0.069,0.219,0.14,0.457,0.212,0.711c0.075,0.258,0.15,0.532,0.232,0.826
		c0.078,0.29,0.157,0.6,0.238,0.927c0.163,0.656,0.323,1.377,0.473,2.138c0.153,0.786,0.294,1.619,0.408,2.48
		c0.117,0.881,0.209,1.798,0.255,2.725c0.052,0.953,0.062,1.912,0.007,2.855c-0.033,0.64-0.095,1.269-0.183,1.88
		c-0.095,0.617-0.219,1.217-0.375,1.785c-0.16,0.578-0.349,1.123-0.574,1.625c-0.225,0.512-0.49,0.979-0.783,1.39l0.046,0.042
		l-0.069-0.01c-0.685,0.956-1.465,1.837-2.32,2.634c-0.428,0.398-0.875,0.777-1.338,1.129l2.545,2.545
		c1.374-1.224,2.598-2.624,3.626-4.174c0.428-0.649,0.78-1.338,1.07-2.053c0.287-0.698,0.509-1.423,0.679-2.16
		c0.166-0.721,0.287-1.459,0.366-2.196c0.078-0.724,0.117-1.452,0.131-2.173c0.01-0.708-0.01-1.416-0.052-2.111
		c-0.042-0.682-0.104-1.358-0.189-2.017c-0.078-0.649-0.173-1.283-0.281-1.896c-0.104-0.607-0.219-1.191-0.339-1.756
		c-0.147-0.685-0.307-1.338-0.467-1.952c-0.157-0.604-0.317-1.165-0.476-1.687c-0.15-0.509-0.3-0.976-0.441-1.393
		c-0.137-0.411-0.264-0.773-0.379-1.083c0.711,0.026,1.625,0.049,2.669,0.049c1.041,0,2.209-0.02,3.43-0.078
		c1.211-0.062,2.47-0.16,3.701-0.317c1.221-0.157,2.402-0.366,3.479-0.646c0.473-0.124,0.93-0.264,1.361-0.424
		c0.428-0.153,0.826-0.326,1.188-0.519c0.362-0.196,0.685-0.405,0.966-0.636c0.281-0.235,0.516-0.486,0.705-0.764
		C50.602,11.373,50.876,10.309,50.831,9.242"/>
</g>
<g>
	<defs>
		<path id="SVGID_8_" d="M33.264,13.964c0.574,0.013,1.23,0.023,1.945,0.023h0.131c0.222,0,0.45,0,0.682-0.007
			c0-0.007-0.003-0.01-0.003-0.01l-4.252-0.062C32.145,13.928,32.657,13.948,33.264,13.964"/>
	</defs>
	<clipPath id="SVGID_128_">
		<use xlink:href="#SVGID_8_"  style="overflow:visible;"/>
	</clipPath>
	<g class="st48">
		<defs>
			<rect id="SVGID_9_" x="39.03" y="17.09" width="5.231" height="0.095"/>
		</defs>
		<clipPath id="SVGID_129_">
			<use xlink:href="#SVGID_9_"  style="overflow:visible;"/>
		</clipPath>
		
			<linearGradient id="SVGID_130_" gradientUnits="userSpaceOnUse" x1="-512.2169" y1="324.4982" x2="-508.9536" y2="324.4982" gradientTransform="matrix(-1.9603 0 0 1.9603 -960.6052 -618.9664)">
			<stop  offset="0" style="stop-color:#FFFFFF"/>
			<stop  offset="1" style="stop-color:#929497"/>
		</linearGradient>
		<rect x="39.03" y="17.09" class="st49" width="5.231" height="0.095"/>
	</g>
</g>
<g class="st11">
	<defs>
		<path id="SVGID_6_" class="st11" d="M32.451,15.694c0,0,2.872,0.02,3.544,0.02c0.643,0,0.082-1.583,0.026-1.733
			c-0.232,0.007-0.46,0.007-0.682,0.007h-0.131c-0.715,0-1.371-0.01-1.945-0.023c-0.607-0.016-1.119-0.036-1.498-0.055
			L32.451,15.694z"/>
	</defs>
	<linearGradient id="SVGID_131_" gradientUnits="userSpaceOnUse" x1="32.4091" y1="15.6141" x2="35.9026" y2="13.7566">
		<stop  offset="0" style="stop-color:#000000"/>
		<stop  offset="0.49" style="stop-color:#FFFFFF"/>
	</linearGradient>
	<use xlink:href="#SVGID_6_"  style="overflow:visible;fill:url(#SVGID_131_);"/>
	<clipPath id="SVGID_132_">
		<use xlink:href="#SVGID_6_"  style="overflow:visible;"/>
	</clipPath>
	<g class="st50">
		<defs>
			<rect id="SVGID_7_" x="39.03" y="17.09" width="5.992" height="2.216"/>
		</defs>
		<linearGradient id="SVGID_133_" gradientUnits="userSpaceOnUse" x1="39.2314" y1="19.6843" x2="44.821" y2="16.7123">
			<stop  offset="0" style="stop-color:#000000"/>
			<stop  offset="0.49" style="stop-color:#FFFFFF"/>
		</linearGradient>
		<use xlink:href="#SVGID_7_"  style="overflow:visible;fill:url(#SVGID_133_);"/>
		<clipPath id="SVGID_134_">
			<use xlink:href="#SVGID_7_"  style="overflow:visible;"/>
		</clipPath>
		
			<linearGradient id="SVGID_135_" gradientUnits="userSpaceOnUse" x1="-510.7851" y1="325.4067" x2="-513.8295" y2="323.7879" gradientTransform="matrix(-1.9603 0 0 1.9603 -960.6052 -618.9664)">
			<stop  offset="0" style="stop-color:#000000"/>
			<stop  offset="0.49" style="stop-color:#FFFFFF"/>
		</linearGradient>
		<rect x="39.03" y="17.09" class="st51" width="5.992" height="2.216"/>
	</g>
</g>
<g>
	<defs>
		<path id="SVGID_4_" d="M30.082,15.576c-0.219-0.01-0.476-0.023-0.767-0.029L30.082,15.576z M27.635,13.742
			c0.398,0.007,0.777,0.016,1.116,0.023l-1.123-0.039L27.635,13.742z"/>
	</defs>
	<clipPath id="SVGID_136_">
		<use xlink:href="#SVGID_4_"  style="overflow:visible;"/>
	</clipPath>
	<g class="st52">
		<defs>
			<rect id="SVGID_5_" x="33.949" y="16.868" width="3.012" height="2.271"/>
		</defs>
		<clipPath id="SVGID_137_">
			<use xlink:href="#SVGID_5_"  style="overflow:visible;"/>
		</clipPath>
		
			<linearGradient id="SVGID_138_" gradientUnits="userSpaceOnUse" x1="146.7862" y1="1439.2262" x2="150.0496" y2="1439.2262" gradientTransform="matrix(0.7427 0 0 -0.7427 -73.8729 1086.953)">
			<stop  offset="0" style="stop-color:#FFFFFF"/>
			<stop  offset="1" style="stop-color:#929497"/>
		</linearGradient>
		<rect x="33.949" y="16.868" class="st53" width="3.012" height="2.271"/>
	</g>
</g>
<g class="st11">
	<defs>
		<path id="SVGID_2_" class="st11" d="M28.209,15.501l1.106,0.046c0.29,0.007,0.548,0.02,0.767,0.029l-0.62-1.788l-0.711-0.023
			c-0.339-0.007-0.718-0.016-1.116-0.023L28.209,15.501z"/>
	</defs>
	<linearGradient id="SVGID_139_" gradientUnits="userSpaceOnUse" x1="27.9706" y1="14.9137" x2="29.7462" y2="14.4046">
		<stop  offset="0.63" style="stop-color:#FFFFFF"/>
		<stop  offset="1" style="stop-color:#000000"/>
	</linearGradient>
	<use xlink:href="#SVGID_2_"  style="overflow:visible;fill:url(#SVGID_139_);"/>
	<clipPath id="SVGID_140_">
		<use xlink:href="#SVGID_2_"  style="overflow:visible;"/>
	</clipPath>
	<g class="st54">
		<defs>
			<rect id="SVGID_3_" x="33.956" y="16.885" width="3.006" height="2.252"/>
		</defs>
		<linearGradient id="SVGID_141_" gradientUnits="userSpaceOnUse" x1="33.7717" y1="18.4944" x2="37.1456" y2="17.5269">
			<stop  offset="0.63" style="stop-color:#FFFFFF"/>
			<stop  offset="1" style="stop-color:#000000"/>
		</linearGradient>
		<use xlink:href="#SVGID_3_"  style="overflow:visible;fill:url(#SVGID_141_);"/>
		<clipPath id="SVGID_142_">
			<use xlink:href="#SVGID_3_"  style="overflow:visible;"/>
		</clipPath>
		
			<linearGradient id="SVGID_143_" gradientUnits="userSpaceOnUse" x1="146.7351" y1="1439.0831" x2="150.3984" y2="1440.1335" gradientTransform="matrix(0.7427 0 0 -0.7427 -73.8729 1086.953)">
			<stop  offset="0.63" style="stop-color:#FFFFFF"/>
			<stop  offset="1" style="stop-color:#000000"/>
		</linearGradient>
		<rect x="33.956" y="16.885" class="st55" width="3.006" height="2.252"/>
	</g>
</g>
<g>
	<defs>
		<rect id="SVGID_1_" x="0" width="182.75" height="53.451"/>
	</defs>
	<clipPath id="SVGID_144_">
		<use xlink:href="#SVGID_1_"  style="overflow:visible;"/>
	</clipPath>
	<path class="st56" d="M176.88,35.295c-0.343,0.101-0.741,0.179-1.188,0.228c-0.447,0.052-0.933,0.078-1.462,0.078
		c-1.544,0-2.761-0.418-3.658-1.25c-0.891-0.832-1.351-2.216-1.371-4.145c0-0.855,0.098-1.641,0.29-2.363
		c0.193-0.721,0.486-1.345,0.884-1.873c0.395-0.529,0.897-0.946,1.508-1.25c0.61-0.307,1.328-0.457,2.164-0.457
		c0.548,0,1.054,0.039,1.524,0.121c0.467,0.082,0.904,0.202,1.309,0.366V35.295z M179.122,15.303
		c-0.274-0.02-0.525-0.029-0.747-0.029c-0.202,0-0.447,0.01-0.731,0.029c-0.284,0.02-0.538,0.049-0.764,0.091v6.798
		c-0.405-0.124-0.878-0.225-1.416-0.307c-0.538-0.082-1.07-0.121-1.599-0.121c-1.178,0-2.252,0.202-3.214,0.61
		c-0.966,0.405-1.795,0.979-2.483,1.72c-0.692,0.744-1.227,1.632-1.602,2.666c-0.375,1.038-0.565,2.186-0.565,3.446
		c0,1.462,0.215,2.692,0.643,3.688c0.424,0.995,1.005,1.808,1.736,2.438c0.731,0.63,1.589,1.08,2.575,1.358
		c0.986,0.271,2.027,0.408,3.123,0.408c1.178,0,2.245-0.075,3.201-0.228c0.953-0.15,1.818-0.339,2.591-0.561V15.395
		C179.644,15.352,179.396,15.323,179.122,15.303"/>
	<path class="st56" d="M153.078,28.41c0.14-1.345,0.542-2.389,1.204-3.143c0.659-0.751,1.609-1.126,2.849-1.126
		c0.63,0,1.172,0.117,1.628,0.349c0.457,0.235,0.835,0.545,1.129,0.93c0.294,0.388,0.519,0.839,0.669,1.358
		c0.153,0.516,0.228,1.061,0.228,1.632H153.078z M163.348,26.076c-0.284-0.884-0.702-1.645-1.25-2.284
		c-0.548-0.643-1.23-1.145-2.04-1.511c-0.816-0.366-1.759-0.548-2.836-0.548c-1.26,0-2.353,0.219-3.276,0.656
		c-0.924,0.437-1.69,1.028-2.301,1.769c-0.61,0.741-1.064,1.615-1.358,2.621c-0.294,1.005-0.441,2.085-0.441,3.244
		c0,1.181,0.153,2.262,0.457,3.247c0.303,0.986,0.786,1.841,1.449,2.559c0.659,0.724,1.498,1.283,2.513,1.677
		c1.015,0.395,2.235,0.594,3.658,0.594c0.976,0,1.863-0.072,2.666-0.212c0.803-0.144,1.537-0.356,2.209-0.64
		c-0.023-0.428-0.082-0.858-0.183-1.296c-0.101-0.437-0.235-0.809-0.398-1.113c-1.299,0.509-2.673,0.76-4.112,0.76
		c-1.645,0-2.891-0.395-3.733-1.188c-0.845-0.793-1.286-2.04-1.325-3.746h10.632c0.023-0.225,0.042-0.493,0.062-0.809
		c0.02-0.313,0.033-0.614,0.033-0.897C163.776,27.92,163.632,26.961,163.348,26.076"/>
	<path class="st56" d="M141.832,21.734c-0.63,0-1.207,0.088-1.736,0.261c-0.529,0.17-0.995,0.395-1.403,0.669
		c-0.405,0.274-0.767,0.584-1.08,0.93c-0.317,0.346-0.574,0.692-0.777,1.034c0-0.343-0.033-0.777-0.091-1.296
		c-0.062-0.516-0.124-0.93-0.186-1.234c-0.222-0.039-0.431-0.069-0.623-0.091c-0.193-0.02-0.401-0.029-0.627-0.029
		c-0.222,0-0.441,0.01-0.653,0.029c-0.215,0.023-0.434,0.052-0.656,0.091v15.635c0.222,0.039,0.476,0.072,0.76,0.091
		c0.287,0.02,0.538,0.029,0.764,0.029c0.222,0,0.47-0.01,0.747-0.029c0.274-0.02,0.522-0.052,0.744-0.091V29.81
		c0-0.956,0.117-1.772,0.352-2.454c0.235-0.679,0.545-1.234,0.93-1.661c0.385-0.428,0.832-0.741,1.341-0.943
		c0.506-0.206,1.044-0.307,1.612-0.307c0.976,0,1.687,0.343,2.134,1.021c0.447,0.682,0.672,1.743,0.672,3.185v9.082
		c0.222,0.039,0.473,0.072,0.744,0.091c0.277,0.02,0.525,0.029,0.747,0.029c0.225,0,0.48-0.01,0.764-0.029
		c0.284-0.02,0.535-0.052,0.76-0.091V27.83c0-2.01-0.424-3.531-1.279-4.556C144.942,22.246,143.621,21.734,141.832,21.734"/>
	<path class="st56" d="M125.241,22.663c-0.02,0.212-0.029,0.421-0.029,0.623c0,0.206,0.01,0.411,0.029,0.627
		c0.02,0.212,0.052,0.401,0.091,0.565h1.981v13.256c0.225,0.039,0.473,0.072,0.747,0.091s0.512,0.029,0.718,0.029
		c0.222,0,0.47-0.01,0.744-0.029c0.274-0.02,0.522-0.052,0.747-0.091V22.099h-4.937C125.293,22.262,125.261,22.451,125.241,22.663"
		/>
	<path class="st56" d="M126.644,18.656c-0.039-0.245-0.065-0.509-0.075-0.793c-0.013-0.284-0.016-0.538-0.016-0.76
		c0-0.225,0.003-0.476,0.016-0.764c0.01-0.284,0.036-0.538,0.075-0.76c0.264-0.042,0.548-0.072,0.855-0.091
		c0.303-0.023,0.568-0.033,0.79-0.033c0.225,0,0.49,0.01,0.793,0.033c0.303,0.02,0.578,0.049,0.822,0.091
		c0.042,0.222,0.065,0.476,0.078,0.76c0.01,0.287,0.013,0.538,0.013,0.764c0,0.222-0.003,0.476-0.013,0.76
		c-0.013,0.284-0.036,0.548-0.078,0.793c-0.245,0.039-0.512,0.072-0.806,0.091c-0.294,0.02-0.555,0.029-0.777,0.029
		c-0.245,0-0.519-0.01-0.822-0.029C127.192,18.728,126.908,18.695,126.644,18.656"/>
	<path class="st56" d="M121.706,21.977c-0.264,0-0.509,0.01-0.731,0.029c-0.225,0.023-0.447,0.052-0.669,0.091l-3.048,12.558
		l-3.414-12.558c-0.225-0.039-0.454-0.065-0.685-0.075c-0.235-0.01-0.516-0.026-0.839-0.046c-0.287,0-0.558,0.01-0.826,0.029
		c-0.261,0.023-0.506,0.052-0.728,0.091l-3.446,12.773l-3.048-12.773c-0.222-0.039-0.48-0.069-0.777-0.091
		c-0.294-0.02-0.584-0.029-0.868-0.029c-0.225,0-0.476,0.01-0.764,0.029c-0.284,0.023-0.568,0.052-0.852,0.091l4.601,15.635
		c0.225,0.042,0.473,0.072,0.747,0.091c0.274,0.023,0.522,0.033,0.747,0.033c0.222,0,0.473-0.01,0.747-0.033
		c0.271-0.02,0.552-0.049,0.835-0.091l3.508-11.823l3.352,11.823c0.264,0.042,0.525,0.072,0.793,0.091
		c0.261,0.023,0.506,0.033,0.731,0.033c0.222,0,0.47-0.01,0.744-0.033c0.274-0.02,0.545-0.049,0.809-0.091l4.663-15.635
		c-0.287-0.039-0.565-0.069-0.839-0.091C122.179,21.987,121.928,21.977,121.706,21.977"/>
	<path class="st56" d="M98.772,35.296c-0.245,0.062-0.519,0.117-0.822,0.166c-0.307,0.052-0.63,0.078-0.976,0.078
		c-0.447,0-0.819-0.046-1.113-0.137c-0.297-0.095-0.529-0.274-0.702-0.552c-0.173-0.274-0.294-0.662-0.366-1.172
		c-0.072-0.509-0.108-1.188-0.108-2.043v-7.131h3.965c0.039-0.202,0.069-0.408,0.088-0.61c0.023-0.202,0.033-0.418,0.033-0.64
		c0-0.428-0.042-0.813-0.121-1.159h-3.965v-3.87h-0.241L89.2,24.08l0.124,0.428H91.7v8.87c0,1.645,0.411,2.823,1.234,3.534
		c0.822,0.711,1.968,1.067,3.43,1.067c0.509,0,0.986-0.026,1.433-0.078c0.447-0.049,0.875-0.127,1.279-0.228
		c0-0.323-0.016-0.698-0.046-1.126C99,36.119,98.912,35.701,98.772,35.296"/>
	<path class="st56" d="M82.088,21.734c-0.63,0-1.207,0.088-1.736,0.261c-0.529,0.17-0.995,0.395-1.403,0.669
		c-0.408,0.274-0.767,0.584-1.08,0.93c-0.317,0.346-0.574,0.692-0.78,1.034c0-0.343-0.029-0.777-0.088-1.296
		c-0.062-0.516-0.124-0.93-0.186-1.234c-0.222-0.039-0.431-0.069-0.623-0.091c-0.193-0.02-0.401-0.029-0.623-0.029
		c-0.225,0-0.444,0.01-0.656,0.029c-0.215,0.023-0.434,0.052-0.656,0.091v15.635c0.222,0.039,0.476,0.072,0.764,0.091
		c0.281,0.02,0.535,0.029,0.76,0.029c0.222,0,0.473-0.01,0.747-0.029s0.522-0.052,0.744-0.091V29.81
		c0-0.956,0.117-1.772,0.352-2.454c0.232-0.679,0.542-1.234,0.93-1.661c0.385-0.428,0.832-0.741,1.341-0.943
		c0.506-0.206,1.044-0.307,1.612-0.307c0.976,0,1.687,0.343,2.134,1.021c0.447,0.682,0.672,1.743,0.672,3.185v9.082
		c0.222,0.039,0.47,0.072,0.744,0.091c0.277,0.02,0.525,0.029,0.747,0.029c0.225,0,0.48-0.01,0.764-0.029s0.538-0.052,0.76-0.091
		V27.83c0-2.01-0.424-3.531-1.279-4.556C85.198,22.246,83.876,21.734,82.088,21.734"/>
	<path class="st56" d="M61.272,35.022v-7.496h7.131c0.042-0.206,0.072-0.428,0.091-0.672c0.02-0.245,0.033-0.476,0.033-0.702
		c0-0.222-0.013-0.45-0.033-0.685c-0.02-0.232-0.049-0.45-0.091-0.656h-7.131v-6.279h8.929c0.042-0.202,0.065-0.424,0.078-0.669
		c0.01-0.245,0.013-0.476,0.013-0.702c0-0.486-0.029-0.933-0.091-1.341H58.162v21.914h12.283c0.039-0.202,0.065-0.428,0.075-0.672
		c0.01-0.241,0.016-0.476,0.016-0.698c0-0.49-0.029-0.937-0.091-1.341H61.272z"/>
</g>
</svg>